<svg xmlns="http://www.w3.org/2000/svg" width="23.291" height="23.292" viewBox="0 0 23.291 23.292"><g transform="translate(-0.02)"><path d="M7.2,196.5a7.176,7.176,0,1,0,7.176,7.176A7.176,7.176,0,0,0,7.2,196.5Zm0,3.582A3.6,3.6,0,0,0,3.6,203.676H2.237a4.965,4.965,0,0,1,4.96-4.96Z" transform="translate(0 -187.561)" fill="#feb7ad"/><path d="M203.656,0a7.176,7.176,0,0,0-7.176,7.176q0,.3.024.585a8.539,8.539,0,0,1,6.569,6.568q.289.023.584.024a7.176,7.176,0,1,0,0-14.353Zm0,3.582a3.6,3.6,0,0,0-3.595,3.595H198.7a4.965,4.965,0,0,1,4.96-4.96Z" transform="translate(-187.522)" fill="#feb7ad"/></g></svg>