<svg xmlns="http://www.w3.org/2000/svg" width="16.278" height="16.278" viewBox="0 0 16.278 16.278"><path d="M6.9,13.235H12.33a.9.9,0,0,0,.9-.9V6.9a.9.9,0,0,0-.9-.9H6.9a.9.9,0,0,0-.9.9V12.33A.9.9,0,0,0,6.9,13.235Zm9.043,0h5.426a.9.9,0,0,0,.9-.9V6.9a.9.9,0,0,0-.9-.9H15.947a.9.9,0,0,0-.9.9V12.33A.9.9,0,0,0,15.947,13.235ZM6.9,22.278H12.33a.9.9,0,0,0,.9-.9V15.947a.9.9,0,0,0-.9-.9H6.9a.9.9,0,0,0-.9.9v5.426A.9.9,0,0,0,6.9,22.278Zm11.756,0a3.617,3.617,0,1,0-3.617-3.617A3.621,3.621,0,0,0,18.66,22.278Z" transform="translate(-6 -6)" fill="#e2e2e2"/></svg>