<svg xmlns="http://www.w3.org/2000/svg" width="19.33" height="19.333" viewBox="0 0 19.33 19.333"><path d="M18.5,22.334a8.132,8.132,0,0,1-3.8-1.295,24.691,24.691,0,0,1-5.964-4.461,22.634,22.634,0,0,1-4.479-5.963C2.667,7.724,2.938,6.208,3.241,5.56a4.035,4.035,0,0,1,1.582-1.7,7.608,7.608,0,0,1,1.236-.656l.119-.052a1.155,1.155,0,0,1,.947-.086,2.775,2.775,0,0,1,.9.69A14.962,14.962,0,0,1,10.276,7.1a3.329,3.329,0,0,1,.441,1.368,2.163,2.163,0,0,1-.55,1.286c-.057.077-.113.151-.167.223-.328.432-.4.556-.353.779a8.186,8.186,0,0,0,1.993,2.957,7.847,7.847,0,0,0,2.922,1.945c.232.05.359-.025.8-.366.064-.049.129-.1.2-.15a2.174,2.174,0,0,1,1.306-.584h0a3.127,3.127,0,0,1,1.375.482,16.486,16.486,0,0,1,3.329,2.235,2.774,2.774,0,0,1,.693.9,1.164,1.164,0,0,1-.086.949c-.016.036-.034.075-.052.119a7.617,7.617,0,0,1-.66,1.233,4.036,4.036,0,0,1-1.7,1.579,2.91,2.91,0,0,1-1.275.279Z" transform="translate(-3.009 -3.001)" fill="#fff"/></svg>