<svg xmlns="http://www.w3.org/2000/svg" width="18.59" height="18.583" viewBox="0 0 18.59 18.583"><g transform="translate(-0.031)"><path d="M17.459,2.323H16.08l-2.214,10.8a1.075,1.075,0,0,1-.39.581,1,1,0,0,1-.626.236H2.922a1.021,1.021,0,0,1-.644-.236,1.075,1.075,0,0,1-.39-.581L.109,6.279A1.59,1.59,0,0,1,.164,5.136a.767.767,0,0,1,.726-.49L13.757,2.414,14.083.8a1.077,1.077,0,0,1,.39-.563A1,1,0,0,1,15.1,0h2.359A1.146,1.146,0,0,1,18.62,1.152a1.127,1.127,0,0,1-.345.826A1.116,1.116,0,0,1,17.459,2.323ZM5.263,15.1a1.742,1.742,0,1,1,0,3.484,1.742,1.742,0,1,1,0-3.484Zm5.807,0a1.735,1.735,0,1,1-1.234.508A1.68,1.68,0,0,1,11.071,15.1Z" fill="#fff"/></g></svg>