<svg xmlns="http://www.w3.org/2000/svg" width="17.077" height="19.517" viewBox="0 0 17.077 19.517"><path d="M3.065,3.659H15.873a1.188,1.188,0,0,1,.858.353,1.163,1.163,0,0,1,.362.867v12.2q0,.934-1.267,1.687a4.718,4.718,0,0,1-2.392.753H2.455A2.35,2.35,0,0,1,.731,18.8a2.35,2.35,0,0,1-.715-1.725V2.44A2.35,2.35,0,0,1,.731.715,2.35,2.35,0,0,1,2.455,0H15.873a1.172,1.172,0,0,1,.858.362,1.183,1.183,0,0,1,.362.867,1.152,1.152,0,0,1-.362.858,1.188,1.188,0,0,1-.858.353H3.065a.606.606,0,0,0-.429,1.039A.586.586,0,0,0,3.065,3.659ZM7.335,17.687a.618.618,0,0,0,.61.61h1.22a.618.618,0,0,0,.61-.61v-1.22a.618.618,0,0,0-.61-.61H7.945a.618.618,0,0,0-.61.61ZM3.675,9.758a.618.618,0,0,0,.61.61h1.22a.618.618,0,0,0,.61-.61q0-.515.715-.867a3.866,3.866,0,0,1,1.725-.353,3.78,3.78,0,0,1,1.725.362q.715.362.715.858,0,.515-.715.867a3.866,3.866,0,0,1-1.725.353,1.237,1.237,0,0,0-1.22,1.22v1.83a.618.618,0,0,0,.61.61h1.22a.618.618,0,0,0,.61-.61V13.3a5.054,5.054,0,0,0,2.63-1.3,3.049,3.049,0,0,0,1.029-2.249A3.153,3.153,0,0,0,12,7.166,5.6,5.6,0,0,0,8.555,6.1a7.039,7.039,0,0,0-1.9.257A6.4,6.4,0,0,0,5.1,6.995a4.668,4.668,0,0,0-1.029.8,1.18,1.18,0,0,0-.391.743Z" transform="translate(-0.016)" fill="#feb7ad"/></svg>