<svg xmlns="http://www.w3.org/2000/svg" width="18.989" height="25.903" viewBox="0 0 18.989 25.903"><g transform="translate(-7.51 -1.5)"><path d="M27,10.9a.863.863,0,0,0-.921-.383c-1.006.226-2,.486-2.953.767a37.616,37.616,0,0,0-5.82,2.3c-1,.488-1.4.72-2.59,1.41l-.243.144A11.847,11.847,0,0,0,10.49,18.61,8.612,8.612,0,0,0,9,23.594a7.245,7.245,0,0,0,2.387,5.524,9.23,9.23,0,0,0,6.247,2.1,8.977,8.977,0,0,0,6.26-2.236,7.573,7.573,0,0,0,2.374-5.628,13.241,13.241,0,0,0-.657-3.681c-.679-2.412-1.266-4.495,1.333-7.778A.863.863,0,0,0,27,10.9Z" transform="translate(-0.632 -3.819)" fill="#feb7ad"/><path d="M15.005,9.635a24.034,24.034,0,0,0-6.5-2.122.863.863,0,0,0-.951.557.889.889,0,0,0,.2.909,6.337,6.337,0,0,1,1.546,5.646.24.24,0,0,0,.409.2,15.362,15.362,0,0,1,3.259-2.449l.242-.14c1.193-.695,1.637-.954,2.7-1.471l.145-.07a.216.216,0,0,0,.035-.369,9.638,9.638,0,0,0-1.1-.687Z" transform="translate(0 -2.547)" fill="#feb7ad"/><path d="M21.826,6.845c.186.1.383.216.588.339a10.216,10.216,0,0,1,1.6,1.208.216.216,0,0,0,.231.041A36.264,36.264,0,0,1,28,7.084q.378-.112.76-.216a.216.216,0,0,0,.137-.3c-.446-.908-.792-1.56-.818-1.608a.863.863,0,0,0-.762-.458,10.439,10.439,0,0,0-4.148,1.149,15.056,15.056,0,0,0-1.424.783.216.216,0,0,0,.012.375Z" transform="translate(-5.997 -1.273)" fill="#feb7ad"/><path d="M17.011,3.917c.394-.257.8-.5,1.2-.718a.108.108,0,0,0,.013-.181,9.769,9.769,0,0,0-2.76-1.48.863.863,0,0,0-.948.314A11.744,11.744,0,0,0,13.476,3.6a.108.108,0,0,0,.07.152c.734.193,1.587.447,2.461.771a.108.108,0,0,0,.1-.011Z" transform="translate(-2.527)" fill="#feb7ad"/></g></svg>