<svg xmlns="http://www.w3.org/2000/svg" width="16.974" height="16.692" viewBox="0 0 16.974 16.692"><g transform="translate(0 -0.797)"><path d="M10.233,1.563A3.735,3.735,0,0,0,8.487.8a3.735,3.735,0,0,0-1.747.766L3.3,3.63C1.686,4.6.881,5.079.441,5.857S0,7.574,0,9.452v3.511a8.507,8.507,0,0,0,.116,2.01,3.4,3.4,0,0,0,2.4,2.4,8.507,8.507,0,0,0,2.01.116,4.25,4.25,0,0,0,1.005-.058,1.7,1.7,0,0,0,1.2-1.2,4.253,4.253,0,0,0,.058-1.005V14.094c0-.8,0-1.2.249-1.449s.649-.249,1.449-.249,1.2,0,1.449.249.249.649.249,1.449v1.132a4.256,4.256,0,0,0,.058,1.005,1.7,1.7,0,0,0,1.2,1.2,4.25,4.25,0,0,0,1.005.058,8.507,8.507,0,0,0,2.01-.116,3.4,3.4,0,0,0,2.4-2.4,8.507,8.507,0,0,0,.116-2.01V9.452c0-1.878,0-2.816-.441-3.595S15.287,4.6,13.677,3.63Z" transform="translate(0 0)" fill="#e2e2e2"/></g></svg>