<svg xmlns="http://www.w3.org/2000/svg" width="18.611" height="18.611" viewBox="0 0 18.611 18.611"><path d="M13.306,4a9.306,9.306,0,1,0,9.306,9.306A9.316,9.316,0,0,0,13.306,4ZM5.861,13.306a7.4,7.4,0,0,1,.4-2.391l1.46,1.46,1.861,1.861V16.1l1.861,1.861.931.931v1.8A7.452,7.452,0,0,1,5.861,13.306ZM19.2,17.84a3.887,3.887,0,0,0-2.168-.812V16.1a1.861,1.861,0,0,0-1.861-1.861H11.444V11.444a1.861,1.861,0,0,0,1.861-1.861V8.653h.931A1.861,1.861,0,0,0,16.1,6.792V6.409a7.422,7.422,0,0,1,3.1,11.43Z" transform="translate(-4 -4)" fill="#feb7ad"/></svg>