<svg xmlns="http://www.w3.org/2000/svg" width="19.87" height="27.126" viewBox="0 0 19.87 27.126"><g transform="translate(-68.608 -0.372)"><path d="M224.056,119.207H224a.413.413,0,0,1-.318-.477c.583-2.439-.106-4.772-.848-7.423-1.113-3.711-2.386-7.953-.265-13.838.106-.212.318-.318.477-.212a.379.379,0,0,1,.265.477c-2.015,5.62-.8,9.755.265,13.361.742,2.651,1.485,5.143.848,7.794A.4.4,0,0,1,224.056,119.207Z" transform="translate(-144.717 -91.709)" fill="#feb7ad" fill-rule="evenodd"/><path d="M246.075,6.927a5.5,5.5,0,0,1-2.863-.742A.436.436,0,0,1,243,5.866a6.091,6.091,0,0,1,3.022-4.825,6.128,6.128,0,0,1,5.673.053.355.355,0,0,1,.212.371,6.082,6.082,0,0,1-3.022,4.772A5.949,5.949,0,0,1,246.075,6.927Z" transform="translate(-165.146)" fill="#feb7ad" fill-rule="evenodd"/><path d="M84.832,42.1a6.016,6.016,0,0,1-2.81-.742A5.8,5.8,0,0,1,79,36.587a.355.355,0,0,1,.212-.371,5.874,5.874,0,0,1,5.62,0,5.69,5.69,0,0,1,3.022,4.772.355.355,0,0,1-.212.371A5.7,5.7,0,0,1,84.832,42.1Z" transform="translate(-9.841 -33.265)" fill="#feb7ad" fill-rule="evenodd"/><path d="M227.022,160.1a6.017,6.017,0,0,1-2.81-.742.355.355,0,0,1-.212-.371,5.935,5.935,0,0,1,3.075-4.772,5.874,5.874,0,0,1,5.62,0,.459.459,0,0,1,.212.371,5.979,5.979,0,0,1-5.885,5.514Z" transform="translate(-147.154 -145.009)" fill="#feb7ad" fill-rule="evenodd"/><path d="M74.142,253.818a6.711,6.711,0,0,1-1.378-.212,5.778,5.778,0,0,1-4.135-3.817.412.412,0,0,1,.106-.424,5.9,5.9,0,0,1,5.461-1.432,5.778,5.778,0,0,1,4.135,3.817.412.412,0,0,1-.106.424A5.867,5.867,0,0,1,74.142,253.818Z" transform="translate(0 -234.273)" fill="#feb7ad" fill-rule="evenodd"/><path d="M263.764,330.818a6.029,6.029,0,0,1-4.029-1.591.412.412,0,0,1-.106-.424,5.851,5.851,0,0,1,9.6-2.439.412.412,0,0,1,.106.424,5.778,5.778,0,0,1-4.135,3.817A4.464,4.464,0,0,1,263.764,330.818Z" transform="translate(-180.874 -307.191)" fill="#feb7ad" fill-rule="evenodd"/></g></svg>