<svg xmlns="http://www.w3.org/2000/svg" width="17" height="15.851" viewBox="0 0 17 15.851"><path d="M1.829,33.141H15.136a.51.51,0,0,0,.51-.51V24.713l.491.426a.51.51,0,1,0,.67-.769l-7.99-6.954a.51.51,0,0,0-.67,0L.158,24.371a.51.51,0,0,0,.67.769l.491-.426v7.918a.51.51,0,0,0,.51.51Zm3.566-6.468a.51.51,0,0,1,.721,0l1.693,1.693,3.039-3.039a.51.51,0,1,1,.721.721l-3.4,3.4a.509.509,0,0,1-.721,0L5.395,27.395a.51.51,0,0,1,0-.721Z" transform="translate(0.018 -17.291)" fill="#feb7ad" fill-rule="evenodd"/></svg>