<svg xmlns="http://www.w3.org/2000/svg" width="17.501" height="17.589" viewBox="0 0 17.501 17.589"><g transform="translate(-0.753)"><g transform="translate(0.753 0)"><g transform="translate(0 0)"><circle cx="1.593" cy="1.593" r="1.593" transform="translate(5.416)" fill="#fff"/><path d="M31.563,217.79a2.413,2.413,0,1,0,2.413,2.413A2.416,2.416,0,0,0,31.563,217.79Zm0,3.1a.687.687,0,1,1,.687-.687A.688.688,0,0,1,31.563,220.89Z" transform="translate(-27.486 -205.027)" fill="#fff"/><path d="M18.152,74.848a3.581,3.581,0,0,0-2.675-1.2c-.041,0-.082,0-.123,0a4.354,4.354,0,0,0-2.341-2.572l-.141-.437h.388a1.01,1.01,0,0,0,.926.606h.485a.253.253,0,0,0,.253-.253V69.477a.253.253,0,0,0-.253-.253h-.485a1.011,1.011,0,0,0-.926.606h-.644a.721.721,0,0,0-.663-1.082l-2.493.133L8.064,67l1.17.931.06-.689a1.076,1.076,0,0,0-.978-1.166L6.4,65.913a1.076,1.076,0,0,0-1.166.978l-.32,3.648a1.858,1.858,0,0,0,.637,1.569.873.873,0,0,0,.1.129H2.628a.542.542,0,0,0-.542.542v1.4a4.09,4.09,0,0,0-1.331,2.6.4.4,0,0,0,.4.446h.757a2.918,2.918,0,0,1,5.836,0h.014a.383.383,0,0,0,.383.383h4.03c.356.022.534-.171.534-.446a2.718,2.718,0,0,1,2.768-2.705,2.772,2.772,0,0,1,2.071.931.4.4,0,0,0,.6-.537ZM8.907,76.8h0a4.07,4.07,0,0,0-.372-1.328h0a4.115,4.115,0,0,0-1.084-1.4V72.627l1.811.154-.046,3.627A.861.861,0,0,0,9.3,76.8h-.4Zm3.019,0H10.861a.862.862,0,0,0,.087-.366L11,72a.866.866,0,0,0-.789-.874l-1.328-.048a.953.953,0,0,1-.933-.6L6.906,67.865l1.628,2.188a.722.722,0,0,0,.617.29L11.88,70.2l.228.71,1.135,3.524A3.576,3.576,0,0,0,11.926,76.8Z" transform="translate(-0.753 -62.046)" fill="#fff"/><path d="M213.23,217.79a2.413,2.413,0,1,0,2.413,2.413A2.416,2.416,0,0,0,213.23,217.79Zm0,3.1a.687.687,0,1,1,.687-.687A.688.688,0,0,1,213.23,220.89Z" transform="translate(-198.506 -205.027)" fill="#fff"/></g></g></g></svg>