<svg xmlns="http://www.w3.org/2000/svg" width="17.501" height="17.5" viewBox="0 0 17.501 17.5"><path d="M10.75,2a3.5,3.5,0,0,0-3.5,3.5H4.687a2.646,2.646,0,0,0-2.659,3l1.294,8.75A2.667,2.667,0,0,0,5.981,19.5h9.538a2.667,2.667,0,0,0,2.659-2.25L19.472,8.5a2.646,2.646,0,0,0-2.659-3H14.25A3.5,3.5,0,0,0,10.75,2ZM12.5,5.5A1.75,1.75,0,1,0,9,5.5Zm1.534,5.111a.875.875,0,0,1-.082,1.235l-3.5,3.063a.875.875,0,0,1-1.195-.04l-1.75-1.75a.875.875,0,1,1,1.237-1.237l1.171,1.171L12.8,10.529a.875.875,0,0,1,1.235.082Z" transform="translate(-1.999 -2)" fill="#e2e2e2" fill-rule="evenodd"/></svg>