<svg xmlns="http://www.w3.org/2000/svg" width="17.618" height="27.126" viewBox="0 0 17.618 27.126"><g transform="translate(-89.726)"><path d="M89.848,343.341a.8.8,0,0,0,.674,1.216h3.436a.8.8,0,0,0,.674-.374l2.966-4.745-2.655-4.248Z" transform="translate(0 -317.432)" fill="#feb7ad"/><path d="M137.5,25.91l-11.748-18.8a3.61,3.61,0,1,1,6.122,0l-2.124,3.4,2.655,4.248,2.432-3.891a7.1,7.1,0,1,0-12.048,0l9.927,15.883a.8.8,0,0,0,.674.374h3.436A.8.8,0,0,0,137.5,25.91Z" transform="translate(-30.279)" fill="#feb7ad"/></g></svg>