<svg xmlns="http://www.w3.org/2000/svg" width="16.25" height="20" viewBox="0 0 16.25 20"><g transform="translate(-6.667 -2.667)"><path d="M21.848,4.542H17.4a2.781,2.781,0,0,0-2.569-1.875,2.787,2.787,0,0,0-2.537,1.875H7.917A1.094,1.094,0,0,0,6.667,5.6V21.61a1.062,1.062,0,0,0,1.069,1.056H21.848a1.062,1.062,0,0,0,1.069-1.056V5.6A1.062,1.062,0,0,0,21.848,4.542ZM10.6,6.417a.625.625,0,0,1,.625-.625h2.15V5.36a1.447,1.447,0,1,1,2.894,0v.431h2.15a.625.625,0,0,1,.625.625v1.25H10.61Zm8.569,12.5h-8.75v-1.25h8.75Zm0-2.5h-8.75v-1.25h8.75Zm0-2.5h-8.75v-1.25h8.75Zm0-2.5h-8.75v-1.25h8.75Z" fill="#feb7ad"/></g></svg>